# xmcd
#
# Track frame offsets:
#	150
#	15182
#	28540
#	41275
#	55392
#	67675
#	81240
#	94912
#	105540
#	121550
#	134770
#	148000
#	164835
#	181520
#	197150
#	212195
#	226812
#	242050
#	256320
#
# Disc length: 3637 seconds
#
# Revision: 1
# Processed by: cddbd v1.4PL0 Copyright (c) Steve Scherf et al.
# Submitted via: audiograbber 1.82.02
#
DISCID=fa0e3313
DTITLE=Renée Martel - Deux albums souvenirs
DYEAR=1999
DGENRE=Country
TTITLE0=C'est mon histoire
TTITLE1=Une vie sans toi
TTITLE2=Nous on aime la musique country
TTITLE3=Je t'appartiens
TTITLE4=De villes en villages
TTITLE5=Quelqu'un quelque part a besoin de toi
TTITLE6=Valse au clair de lune
TTITLE7=Ne dis rien
TTITLE8=Divorce
TTITLE9=Dors bien mon ange
TTITLE10=Valse d'un soir de mai
TTITLE11=Mes vingt ans
TTITLE12=Premiers moments d'amour
TTITLE13=Cadeau
TTITLE14=Au bout du monde
TTITLE15=Les enfants de l'été
TTITLE16=Amoureuse une autre fois
TTITLE17=Vivre avec toi
TTITLE18=Je n'aime que toi
EXTD=
EXTT0=
EXTT1=
EXTT2=
EXTT3=
EXTT4=
EXTT5=
EXTT6=
EXTT7=
EXTT8=
EXTT9=
EXTT10=
EXTT11=
EXTT12=
EXTT13=
EXTT14=
EXTT15=
EXTT16=
EXTT17=
EXTT18=
PLAYORDER=
